<?xml version="1.0" standalone="no"?><!DOCTYPE svg PUBLIC "-//W3C//DTD SVG 1.1//EN" "http://www.w3.org/Graphics/SVG/1.1/DTD/svg11.dtd"><svg t="1710782163331" class="icon" viewBox="0 0 1024 1024" version="1.1" xmlns="http://www.w3.org/2000/svg" p-id="9776" xmlns:xlink="http://www.w3.org/1999/xlink" width="200" height="200"><path d="M42.666667 512C42.666667 252.8 252.8 42.666667 512 42.666667s469.333333 210.133333 469.333333 469.333333-210.133333 469.333333-469.333333 469.333333S42.666667 771.2 42.666667 512zM512 128C299.925333 128 128 299.925333 128 512s171.925333 384 384 384 384-171.925333 384-384S724.074667 128 512 128z" fill="#595959" p-id="9777"></path><path d="M414.570667 89.536C440.021333 62.656 472.917333 42.666667 512 42.666667c39.082667 0 71.978667 19.968 97.429333 46.869333 25.365333 26.816 46.229333 63.338667 62.869334 104.917333C705.664 277.866667 725.333333 390.144 725.333333 512s-19.669333 234.154667-53.034666 317.546667c-16.64 41.578667-37.504 78.08-62.869334 104.917333C583.978667 961.344 551.082667 981.333333 512 981.333333c-39.082667 0-71.978667-19.968-97.429333-46.869333-25.365333-26.837333-46.229333-63.338667-62.869334-104.917333C318.336 746.133333 298.666667 633.856 298.666667 512s19.669333-234.154667 53.034666-317.546667c16.64-41.578667 37.504-78.08 62.869334-104.917333z m16.362666 136.618667C402.517333 297.173333 384 398.208 384 512s18.517333 214.826667 46.933333 285.866667c14.250667 35.626667 30.165333 61.589333 45.653334 77.952 15.36 16.277333 27.370667 20.181333 35.413333 20.181333s20.053333-3.904 35.413333-20.181333c15.488-16.362667 31.402667-42.346667 45.653334-77.973334C621.482667 726.826667 640 625.770667 640 512c0-113.792-18.517333-214.826667-46.933333-285.866667-14.250667-35.626667-30.165333-61.589333-45.653334-77.952C532.053333 131.904 520.064 128 512 128s-20.053333 3.904-35.413333 20.181333c-15.488 16.362667-31.402667 42.325333-45.653334 77.973334z" fill="#595959" p-id="9778"></path><path d="M934.464 414.570667C961.344 440.021333 981.333333 472.917333 981.333333 512c0 39.082667-19.968 71.978667-46.869333 97.429333-26.837333 25.365333-63.338667 46.229333-104.917333 62.869334C746.133333 705.664 633.856 725.333333 512 725.333333s-234.154667-19.669333-317.546667-53.034666c-41.578667-16.64-78.08-37.504-104.917333-62.869334C62.656 583.978667 42.666667 551.082667 42.666667 512c0-39.082667 19.968-71.978667 46.869333-97.429333 26.816-25.365333 63.338667-46.229333 104.917333-62.869334C277.866667 318.336 390.144 298.666667 512 298.666667s234.154667 19.669333 317.546667 53.034666c41.578667 16.64 78.08 37.504 104.917333 62.869334z m-136.618667 16.362666C726.826667 402.517333 625.770667 384 512 384c-113.792 0-214.826667 18.517333-285.866667 46.933333-35.626667 14.250667-61.589333 30.165333-77.952 45.653334C131.904 491.946667 128 503.936 128 512s3.904 20.053333 20.181333 35.413333c16.362667 15.488 42.325333 31.402667 77.973334 45.653334C297.173333 621.482667 398.208 640 512 640s214.826667-18.517333 285.866667-46.933333c35.626667-14.250667 61.589333-30.165333 77.952-45.653334 16.277333-15.36 20.181333-27.370667 20.181333-35.413333s-3.904-20.053333-20.181333-35.413333c-16.362667-15.488-42.346667-31.402667-77.973334-45.653334z" fill="#595959" p-id="9779"></path><path d="M362.666667 341.333333h298.666666v320H362.666667z" fill="#595959" p-id="9780"></path><path d="M660.906667 448a61.653333 61.653333 0 0 0-21.888 3.712 35.754667 35.754667 0 0 0-15.68 10.88 25.578667 25.578667 0 0 0-5.632 16.213333c0 11.925333 7.338667 21.013333 20.266666 27.349334 4.736 2.304 10.965333 4.586667 18.645334 6.869333h0.021333c7.530667 2.197333 12.16 4.16 14.464 5.76h0.042667c1.685333 1.173333 2.624 2.773333 2.624 5.397333 0 2.154667-0.810667 3.626667-2.56 4.8-1.984 1.28-5.077333 2.133333-9.770667 2.133334-6.549333 0-10.666667-1.258667-13.098667-3.114667-2.261333-1.706667-3.669333-4.394667-3.669333-8.832v-3.968H614.4v3.968c0 6.933333 1.984 13.205333 5.994667 18.624v0.021333c4.074667 5.418667 9.856 9.536 17.109333 12.501334h0.021333c7.253333 2.922667 15.253333 4.352 23.893334 4.352 12.288 0 22.570667-2.474667 30.442666-7.808 8.042667-5.546667 12.117333-13.269333 12.117334-22.826667 0-8.533333-3.306667-15.850667-9.813334-21.632-6.4-5.632-16.149333-10.048-28.821333-13.504-6.570667-1.813333-11.242667-3.669333-14.250667-5.482667-2.56-1.578667-3.242667-3.072-3.242666-4.522666 0-2.026667 0.789333-3.541333 2.709333-4.864h0.021333c1.984-1.408 5.12-2.346667 9.962667-2.346667 4.906667 0 8.106667 1.088 10.154667 2.752l0.021333 0.021333c1.941333 1.536 3.093333 3.754667 3.093333 7.210667v3.946667H704v-3.946667c0-6.528-1.877333-12.458667-5.674667-17.685333a35.242667 35.242667 0 0 0-15.488-11.882667A55.722667 55.722667 0 0 0 660.906667 448z" fill="#FFFFFF" p-id="9781"></path><path d="M356.757333 449.322667H320v104.021333h36.970667c9.898667-0.042667 18.901333-2.133333 26.944-6.293333 8.064-4.181333 14.336-10.112 18.730666-17.728 4.48-7.616 6.634667-16.213333 6.634667-25.749334v-4.416c0-9.536-2.197333-18.176-6.698667-25.813333-4.501333-7.68-10.816-13.653333-18.88-17.792a57.344 57.344 0 0 0-26.944-6.229333z m-6.613333 80.213333v-56.277333h6.613333c7.658667 0 12.885333 2.24 16.362667 6.186666 3.584 4.032 5.717333 10.368 5.717333 19.626667v5.077333c-0.106667 8.874667-2.282667 15.082667-5.930666 19.2-3.541333 3.968-8.768 6.186667-16.384 6.186667h-6.357334zM453.610667 449.322667H416.853333v104.021333h36.992c9.877333-0.042667 18.901333-2.133333 26.922667-6.293333 8.064-4.181333 14.336-10.112 18.752-17.728 4.437333-7.616 6.613333-16.213333 6.613333-25.749334v-4.416c0-9.536-2.197333-18.176-6.698666-25.813333-4.48-7.68-10.816-13.653333-18.88-17.792a57.344 57.344 0 0 0-26.944-6.229333z m-6.592 80.213333v-56.277333h6.592c7.658667 0 12.885333 2.24 16.362666 6.186666 3.584 4.032 5.717333 10.368 5.717334 19.626667v5.077333c-0.106667 8.874667-2.261333 15.082667-5.930667 19.2-3.541333 3.968-8.768 6.186667-16.362667 6.186667h-6.378666z" fill="#FFFFFF" p-id="9782"></path><path d="M541.994667 449.322667H513.706667v104.021333h30.165333v-53.610667l36.010667 53.610667h28.288v-104.021333h-30.101334v53.76l-36.053333-53.76z" fill="#FFFFFF" p-id="9783"></path></svg>