<?xml version="1.0" standalone="no"?><!DOCTYPE svg PUBLIC "-//W3C//DTD SVG 1.1//EN" "http://www.w3.org/Graphics/SVG/1.1/DTD/svg11.dtd"><svg t="1710782350388" class="icon" viewBox="0 0 1024 1024" version="1.1" xmlns="http://www.w3.org/2000/svg" p-id="10707" data-spm-anchor-id="a313x.search_index.0.i15.7bcf3a815bySVc" xmlns:xlink="http://www.w3.org/1999/xlink" width="200" height="200"><path d="M350.165333 473.258667h6.592c7.658667 0 12.885333 2.24 16.362667 6.186666 3.584 4.032 5.717333 10.368 5.717333 19.626667v5.077333c-0.106667 8.874667-2.282667 15.082667-5.930666 19.2-3.541333 3.968-8.768 6.186667-16.384 6.186667h-6.357334v-56.277333zM447.018667 529.536v-56.277333h6.592c7.658667 0 12.885333 2.24 16.362666 6.186666 3.584 4.032 5.717333 10.368 5.717334 19.626667v5.077333c-0.106667 8.874667-2.261333 15.082667-5.930667 19.2-3.541333 3.968-8.768 6.186667-16.362667 6.186667h-6.378666z" fill="#ffffff" p-id="10708" data-spm-anchor-id="a313x.search_index.0.i21.7bcf3a815bySVc" class="selected"></path><path d="M42.666667 512C42.666667 252.8 252.8 42.666667 512 42.666667s469.333333 210.133333 469.333333 469.333333-210.133333 469.333333-469.333333 469.333333S42.666667 771.2 42.666667 512z m786.88-160.298667c13.653333 5.461333 26.730667 11.370667 39.125333 17.749334A385.28 385.28 0 0 0 654.549333 155.328c6.378667 12.373333 12.288 25.493333 17.749334 39.125333 14.357333 35.904 26.197333 77.162667 34.986666 122.24 45.077333 8.810667 86.357333 20.650667 122.24 35.008zM797.845333 430.933333a559.424 559.424 0 0 0-77.525333-24.106666c3.285333 33.877333 5.013333 69.12 5.013333 105.173333 0 36.053333-1.706667 71.296-5.013333 105.173333 28.586667-6.805333 54.613333-14.933333 77.525333-24.106666 35.626667-14.250667 61.610667-30.165333 77.973334-45.653334 16.277333-15.36 20.181333-27.370667 20.181333-35.413333s-3.904-20.053333-20.181333-35.413333c-16.362667-15.488-42.346667-31.402667-77.973334-45.653334z m31.701334 241.365334c-35.904 14.357333-77.162667 26.197333-122.24 34.986666-8.810667 45.077333-20.650667 86.357333-35.008 122.24-5.461333 13.653333-11.370667 26.752-17.749334 39.146667a385.28 385.28 0 0 0 214.122667-214.122667c-12.373333 6.378667-25.493333 12.288-39.125333 17.749334zM512 298.666667c36.053333 0 71.296 1.706667 105.173333 5.013333-6.805333-28.586667-14.933333-54.613333-24.106666-77.525333-14.250667-35.626667-30.165333-61.610667-45.653334-77.973334C532.053333 131.904 520.064 128 512 128s-20.053333 3.904-35.413333 20.181333c-15.488 16.362667-31.402667 42.325333-45.653334 77.973334a559.424 559.424 0 0 0-24.106666 77.525333A1090.197333 1090.197333 0 0 1 512 298.666667z m0 426.666666c-36.053333 0-71.296-1.706667-105.173333-5.013333 6.805333 28.586667 14.933333 54.613333 24.106666 77.525333 14.250667 35.626667 30.165333 61.610667 45.653334 77.973334 15.36 16.277333 27.370667 20.181333 35.413333 20.181333s20.053333-3.904 35.413333-20.181333c15.488-16.362667 31.402667-42.346667 45.653334-77.973334 9.173333-22.912 17.301333-48.938667 24.106666-77.525333-33.877333 3.285333-69.12 5.013333-105.173333 5.013333zM298.666667 512c0-36.053333 1.706667-71.296 5.013333-105.173333-28.586667 6.805333-54.613333 14.933333-77.525333 24.106666-35.626667 14.250667-61.610667 30.165333-77.973334 45.653334-16.256 15.36-20.181333 27.349333-20.181333 35.392V512c0 8.042667 3.904 20.053333 20.181333 35.413333 16.362667 15.488 42.325333 31.402667 77.973334 45.653334 22.912 9.173333 48.938667 17.301333 77.525333 24.106666A1090.197333 1090.197333 0 0 1 298.666667 512z m-104.213334-160.298667c35.904-14.357333 77.162667-26.197333 122.24-34.986666 8.810667-45.098667 20.650667-86.357333 35.008-122.24 5.461333-13.653333 11.370667-26.752 17.749334-39.146667A385.28 385.28 0 0 0 155.328 369.450667c12.373333-6.378667 25.493333-12.288 39.125333-17.749334z m0 320.597334a453.461333 453.461333 0 0 1-39.125333-17.749334 385.28 385.28 0 0 0 214.122667 214.122667 453.461333 453.461333 0 0 1-17.749334-39.125333c-14.357333-35.904-26.197333-77.162667-34.986666-122.24-45.098667-8.810667-86.357333-20.650667-122.24-35.008z m444.565334-220.586667a35.754667 35.754667 0 0 0-15.68 10.88 25.578667 25.578667 0 0 0-5.632 16.213333c0 11.925333 7.338667 21.013333 20.266666 27.349334 4.736 2.304 10.965333 4.586667 18.645334 6.869333h0.021333c7.530667 2.197333 12.16 4.16 14.464 5.76h0.042667c1.685333 1.173333 2.624 2.773333 2.624 5.397333 0 2.154667-0.810667 3.626667-2.56 4.8-1.984 1.28-5.077333 2.133333-9.770667 2.133334-6.549333 0-10.666667-1.258667-13.098667-3.114667-2.261333-1.706667-3.669333-4.394667-3.669333-8.832v-3.968H614.4v3.968c0 6.933333 1.984 13.205333 5.994667 18.624l0.021333 0.021333c4.053333 5.418667 9.834667 9.536 17.088 12.501334h0.021333c7.253333 2.922667 15.253333 4.352 23.893334 4.352 12.288 0 22.570667-2.474667 30.442666-7.808 8.042667-5.546667 12.117333-13.269333 12.117334-22.826667 0-8.533333-3.306667-15.850667-9.813334-21.632-6.4-5.632-16.149333-10.048-28.821333-13.504-6.570667-1.813333-11.242667-3.669333-14.250667-5.482667-2.56-1.578667-3.242667-3.072-3.242666-4.522666 0-2.026667 0.789333-3.541333 2.709333-4.864h0.021333c1.984-1.408 5.12-2.346667 9.962667-2.346667 4.906667 0 8.106667 1.088 10.154667 2.752l0.021333 0.021333c1.941333 1.536 3.093333 3.754667 3.093333 7.210667v3.946667H704v-3.946667c0-6.528-1.877333-12.458667-5.674667-17.685333a35.242667 35.242667 0 0 0-15.488-11.882667A55.722667 55.722667 0 0 0 660.906667 448a61.653333 61.653333 0 0 0-21.909334 3.712zM320 449.322667v104.021333h36.992c9.877333-0.042667 18.88-2.133333 26.922667-6.293333 8.064-4.181333 14.336-10.112 18.730666-17.728 4.48-7.616 6.634667-16.213333 6.634667-25.749334v-4.416c0-9.536-2.197333-18.176-6.698667-25.813333-4.501333-7.68-10.816-13.653333-18.88-17.792a57.344 57.344 0 0 0-26.944-6.229333H320z m133.610667 0H416.853333v104.021333h36.970667c9.877333-0.042667 18.922667-2.133333 26.944-6.293333 8.064-4.181333 14.336-10.112 18.752-17.728 4.437333-7.616 6.613333-16.213333 6.613333-25.749334v-4.416c0-9.536-2.197333-18.176-6.698666-25.813333-4.48-7.68-10.816-13.653333-18.88-17.792a57.344 57.344 0 0 0-26.944-6.229333z m60.096 0v104.021333h30.165333v-53.610667l36.010667 53.610667h28.288v-104.021333h-30.101334v53.76l-36.053333-53.76H513.706667z" fill="#ffffff" p-id="10709" data-spm-anchor-id="a313x.search_index.0.i16.7bcf3a815bySVc" class=""></path></svg>