<?xml version="1.0" standalone="no"?><!DOCTYPE svg PUBLIC "-//W3C//DTD SVG 1.1//EN" "http://www.w3.org/Graphics/SVG/1.1/DTD/svg11.dtd"><svg t="1710826458273" class="icon" viewBox="0 0 1024 1024" version="1.1" xmlns="http://www.w3.org/2000/svg" p-id="19233" xmlns:xlink="http://www.w3.org/1999/xlink" width="200" height="200"><path d="M174.489028 849.519553L174.480447 174.480447h675.039106v675.039106H174.489028z m135.645676-134.038168h405.346681V310.134704H310.134704v405.346681z" fill="#ffffff" p-id="19234"></path><path d="M397.921251 626.118793h228.246168V397.872626h-228.246168v228.246167z m-105.374748-513.96791h61.811843V0h-61.811843v112.150883z m125.726033 0h61.811844V0h-61.811844v112.150883z m125.683129 0h61.820424V0h-61.820424v112.150883z m125.731754 0h61.814704V0h-61.811844v112.150883zM292.546503 1024h61.811843v-112.150883h-61.811843V1024z m125.726033 0h61.811844v-112.150883h-61.811844V1024z m125.683129 0h61.820424v-112.150883h-61.820424V1024z m125.731754 0h61.814704v-112.150883h-61.811844V1024z m242.164559-669.647374H1024v-61.811844h-112.148022v61.811844z m0 125.691709H1024v-61.820424h-112.148022v61.820424z m0 125.766078H1024v-61.854748h-112.148022v61.854748z m0 125.723174H1024v-61.851889h-112.148022v61.851889zM0.005721 354.352626h112.190927v-61.811844H0l0.008581 61.811844z m0 125.691709h112.190927v-61.820424H0l0.008581 61.820424z m0 125.766078h112.190927v-61.854748H0l0.008581 61.854748z m0 125.723174h112.190927v-61.851889H0l0.008581 61.851889z" fill="#ffffff" p-id="19235"></path></svg>