<?xml version="1.0" standalone="no"?><!DOCTYPE svg PUBLIC "-//W3C//DTD SVG 1.1//EN" "http://www.w3.org/Graphics/SVG/1.1/DTD/svg11.dtd"><svg t="1710782980354" class="icon" viewBox="0 0 1024 1024" version="1.1" xmlns="http://www.w3.org/2000/svg" p-id="12624" xmlns:xlink="http://www.w3.org/1999/xlink" width="200" height="200"><path d="M0.189155 0.189155h1023.638886v1023.62169H0.189155V0.189155zM917.368083 551.6452a19.03588601 19.03588601 0 0 0-5.347932-11.469681l-85.10262101-87.252111v-137.51579401a15.923424 15.923424 0 0 0-15.923424-15.92342499h-66.34186999a15.923424 15.923424 0 0 0-15.923424 15.92342501v37.45272L528.91218999 150.619087l-0.24074299-0.257939a23.902333 23.902333 0 0 0-33.789988 0.292331L111.962653 540.055148a19.22504201 19.22504201 0 0 0-5.382324 11.521268v3.748711a19.12186599 19.12186599 0 0 0 19.01869 17.19592301h71.139532v273.63871799a15.94062 15.94062 0 0 0 15.923425 15.923424h598.33212999a15.923424 15.923424 0 0 0 15.923424-15.923424V572.55544201h71.43186301a19.12186599 19.12186599 0 0 0 19.01869-17.19592301v-3.714319z m-298.022536-39.72258201a30.67752601 30.67752601 0 1 0-14.461771 14.51335901l44.05595399 44.21071699v42.90382701l-55.23330299 55.422459v-40.685553a30.69472199 30.69472199 0 1 0-20.463148 0v61.148701l-51.140674 51.364221V439.252649l41.992443-42.164402a30.79789801 30.79789801 0 1 0-14.461771-14.513359l-37.83103 37.83102999-37.83103-37.83102999a30.67752601 30.67752601 0 1 0-14.46177101 14.513359l42.00963901 42.164402v215.292952l-73.650137-73.94246699v-59.06799501a30.69472199 30.69472199 0 1 0-20.463148 0v38.55325901l-57.27961801-57.48597001v-57.038875a30.67752601 30.67752601 0 1 0-20.463148 0v65.55085701l63.28099501 63.50454199h-36.266201a30.815093 30.815093 0 1 0 0 20.514736h56.849721l88.111908 88.438631v153.697157l-47.048045-47.220004v-59.10238601a30.69472199 30.69472199 0 1 0-20.463148 0v38.57045401l-68.456968-68.783691a30.67752601 30.67752601 0 1 0-27.702632 17.50545 30.453979 30.453979 0 0 0 13.240861-2.992091l68.456968 68.697711h-36.386572a30.79789801 30.79789801 0 1 0 0 20.531932h56.832524l57.296815 57.48597h28.975129l59.325934-59.532285h54.803405a30.79789801 30.79789801 0 1 0 0-20.531931h-63.280995l-55.026953 55.284891v-67.373625l65.602445-65.843188h105.94408a30.79789801 30.79789801 0 1 0 0-20.531932h-85.58410701l61.217484-61.458227v-51.32982999l44.05595401-44.21071701a30.385195 30.385195 0 0 0 13.240861 3.009287 30.76350599 30.76350599 0 1 0-27.702632-17.52264599l-29.59418301 29.69735899V447.609868a30.69472199 30.69472199 0 1 0-20.445952 0v94.010109l-29.59418299-29.69735899zM354.42516201 806.626341a12.329477 12.329477 0 1 0-12.27788802-12.329476 12.312281 12.312281 0 0 0 12.277888 12.329476z m90.020656-92.393692a12.329477 12.329477 0 1 0-12.27788901-12.329477 12.312281 12.312281 0 0 0 12.27788901 12.329477z m-106.39117401-14.375792a12.329477 12.329477 0 1 0-12.277889-12.329476 12.312281 12.312281 0 0 0 12.277889 12.329476z m-10.31755399-102.659658a12.329477 12.329477 0 1 0-12.260692-12.32947699 12.295085 12.295085 0 0 0 12.260692 12.32947699z m255.73776299 14.37579101a12.329477 12.329477 0 1 0-12.277889-12.329476 12.312281 12.312281 0 0 0 12.277889 12.329476z m139.115014 94.440008a12.329477 12.329477 0 1 0-12.27788899-12.31228101 12.295085 12.295085 0 0 0 12.27788899 12.31228101z m-53.18698899 98.54983299a12.329477 12.329477 0 1 0-12.277888-12.31228099 12.295085 12.295085 0 0 0 12.277888 12.31228099z m57.27961899-293.603184a12.329477 12.329477 0 1 0-12.277889-12.31228099 12.295085 12.295085 0 0 0 12.277889 12.31228099z m-67.511193-80.064216a12.329477 12.329477 0 1 0-12.277888-12.32947699 12.312281 12.312281 0 0 0 12.277888 12.32947699z m-81.835396-49.283515a12.329477 12.329477 0 1 0-12.277889-12.31228 12.295085 12.295085 0 0 0 12.277889 12.31228z m-130.929755 0a12.329477 12.329477 0 1 0-12.277889-12.31228 12.295085 12.295085 0 0 0 12.277889 12.31228z m-106.391174 47.220004a12.329477 12.329477 0 1 0-12.27788899-12.312281 12.295085 12.295085 0 0 0 12.27788899 12.312281z m77.74276701 75.97158601a12.329477 12.329477 0 1 0-12.27788901-12.31228 12.295085 12.295085 0 0 0 12.27788901 12.31228z m173.97114999 6.15614099a12.329477 12.329477 0 1 0-12.277889-12.31228099 12.295085 12.295085 0 0 0 12.277889 12.31228099z" fill="#00A0E9" p-id="12625"></path></svg>