<?xml version="1.0" standalone="no"?><!DOCTYPE svg PUBLIC "-//W3C//DTD SVG 1.1//EN" "http://www.w3.org/Graphics/SVG/1.1/DTD/svg11.dtd"><svg t="1710781133851" class="icon" viewBox="0 0 1051 1024" version="1.1" xmlns="http://www.w3.org/2000/svg" p-id="20591" xmlns:xlink="http://www.w3.org/1999/xlink" width="205.2734375" height="200"><path d="M88.949562 843.337442c-0.434749 8.260223 5.912581 14.955352 14.172804 14.955352h0.347799V846.554582h7.477676v11.738212h72.342166c8.260223 0 14.955352-2.608492 14.955352-5.825631 0-2.086793 0-3.999687 0.086949-5.825631 0.347799-11.129564 0.695598-22.259128 0.956447-33.301743H90.775506c-0.608648 9.912268-1.217296 19.824536-1.825944 29.997653z m690.380767-30.084602H670.73013c0.347799 11.129564 0.608648 22.259128 0.956447 33.301742 0.08695 1.912894 0.08695 3.825788 0.08695 5.825631 0 3.21714 6.608179 5.825631 14.955351 5.825631H759.071044V846.554582h7.477676v11.738212h0.347799c8.260223 0 14.607553-6.695128 14.172804-14.955352-0.608648-10.173117-1.217296-20.085385-1.738994-30.084602z m-4.434436-63.386345c-3.912737-53.300178-7.651575-106.513405-11.651262-159.726633-4.608335-61.560401-9.564469-123.033852-14.259754-184.507304-3.999687-52.865429-7.651575-105.817808-11.912112-158.683236-0.347799-3.738838-3.391039-8.955821-6.608178-10.520916-36.95363-16.868245-73.820311-33.99734-111.46954-49.213541-16.172648-6.608179-33.214793-10.955665-50.604736-15.564-7.999374-2.173743-14.433653-10.086167-14.433653-17.389943v-13.216358c0-25.128469 0-25.128469-24.519821-31.301898C460.833509 92.700521 392.751879 92.700521 325.018048 114.003202c-5.999531 1.912894-8.347173 4.260536-8.086323 10.781765 0.347799 9.21667 0.347799 18.43334 0.260849 27.73696-0.08695 8.260223-1.043397 15.216201-2.173743 15.564-0.869497 0.260849-1.565095 0.434749-2.173743 0.608648-61.125652 13.825005-118.686366 36.779731-173.725538 66.516535-5.477832 2.95629-7.912424 6.17343-8.260223 12.520759-1.391195 25.563217-3.391039 51.039485-5.216983 76.689652l-17.998592 249.023995c-5.564782 77.906948-10.955665 155.639996-16.433497 233.546944h108.2524c0.782547-26.258815 1.565095-52.51763 3.04324-78.776445 3.999687-68.951127 11.042614-137.728354 23.476424-205.723035 3.13019-17.042145 2.695441-17.129095 19.824536-16.259597 0.347799 0.08695 0.782547 0.260849 1.391195 0.608648 0.695598 0.347799 1.304246 2.782391 1.304246 5.390883v4.695284c0 39.562122 0.08695 79.037294-0.173899 118.599417 0 5.738681 0.347799 95.209942 0 123.294701-0.08695 5.825631 1.999844 8.434123 7.042927 11.042614 33.127843 16.433497 67.299082 29.128156 103.209316 37.21448 6.521229 1.565095 13.216357 2.782391 19.824536 3.999687 5.825631 0.956447 11.564313 1.738994 17.389944 2.260692 3.13019 0.347799 6.347329 0.695598 9.477519 0.956447 2.434592 0.260849 4.695285-0.08695 6.782078-0.956447 2.869341-1.217296 5.303933-3.391039 6.608179-6.347329 0.956447-1.912894 1.565095-3.999687 1.565094-6.26038v-39.301273h29.736804v38.344826c0 2.608492 0.08695 5.043084 0.260849 7.042928 0.260849 2.695441 0.521698 4.869184 0.869498 6.347329 0.347799 1.217296 0.608648 1.825944 0.956447 1.912894 0.782547 0.08695 1.478145 0.173899 2.173742 0.173899 8.434123-0.347799 16.781296-1.043397 25.128469-2.086793 12.34686-1.478145 24.519821-3.477989 36.518882-6.347329 35.127686-7.912424 68.777227-21.302681 101.035573-38.953474 2.173743-1.217296 3.825788-5.216983 3.912738-7.999375 0.347799-15.650949 0.260849-31.475798 0.260849-47.213697 0-13.129408 0.173899-71.646568 0.086949-77.993897-0.260849-39.475172-0.08695-79.037294-0.086949-118.512467v-4.956134c0-2.695441 1.565095-5.043084 3.391039-5.130033 1.391195 0 2.434592-0.08695 3.477988-0.26085 8.521072-1.130346 13.129408 0.869497 14.433654 11.129564 3.825788 29.562904 10.781765 58.86496 13.216357 88.601764 5.477832 67.038233 9.477519 134.250366 13.738056 201.375548h109.904444c-1.565095-18.868089-2.95629-37.997027-4.347486-57.039015zM435.87894 144.261704c-41.127217 0-74.428959-8.434123-74.428959-18.955039s33.214793-18.955039 74.428959-18.955038c41.127217 0 74.428959 8.434123 74.428959 18.955038s-33.388692 18.955039-74.428959 18.955039z" p-id="20592" fill="#ffffff"></path></svg>