<?xml version="1.0" standalone="no"?><!DOCTYPE svg PUBLIC "-//W3C//DTD SVG 1.1//EN" "http://www.w3.org/Graphics/SVG/1.1/DTD/svg11.dtd"><svg t="1710747930810" class="icon" viewBox="0 0 1024 1024" version="1.1" xmlns="http://www.w3.org/2000/svg" p-id="4983" xmlns:xlink="http://www.w3.org/1999/xlink" width="200" height="200"><path d="M908.1 879.5H134c-19.9 0-36-16.1-36-36V180.3c0-19.9 16.1-36 36-36h774.1c19.9 0 36 16.1 36 36v663.2c0 19.8-16.2 36-36 36z" fill="#FFFFFF" p-id="4984"></path><path d="M908.1 895.5H134c-28.7 0-52-23.3-52-52V180.3c0-28.7 23.3-52 52-52h774.1c28.7 0 52 23.3 52 52v663.2c0 28.6-23.4 52-52 52zM134 160.3c-11 0-20 9-20 20v663.2c0 11 9 20 20 20h774.1c11 0 20-9 20-20V180.3c0-11-9-20-20-20H134z" fill="#00365B" p-id="4985"></path><path d="M491.038359 497.063618a16 16 0 1 0 10.118255-30.35821 16 16 0 1 0-10.118255 30.35821Z" fill="#00365B" p-id="4986"></path><path d="M491.037145 369.065934a16 16 0 1 0 10.118256-30.35821 16 16 0 1 0-10.118256 30.35821Z" fill="#00365B" p-id="4987"></path><path d="M491.03741 433.064302a16 16 0 1 0 10.118256-30.35821 16 16 0 1 0-10.118256 30.35821Z" fill="#00365B" p-id="4988"></path><path d="M491.034983 241.068934a16 16 0 1 0 10.118256-30.35821 16 16 0 1 0-10.118256 30.35821Z" fill="#00365B" p-id="4989"></path><path d="M491.035248 305.067302a16 16 0 1 0 10.118256-30.35821 16 16 0 1 0-10.118256 30.35821Z" fill="#00365B" p-id="4990"></path><path d="M491.038623 561.161985a16 16 0 1 0 10.118256-30.35821 16 16 0 1 0-10.118256 30.35821Z" fill="#00365B" p-id="4991"></path><path d="M491.040786 753.158985a16 16 0 1 0 10.118256-30.35821 16 16 0 1 0-10.118256 30.35821Z" fill="#00365B" p-id="4992"></path><path d="M491.039572 625.161301a16 16 0 1 0 10.118256-30.358209 16 16 0 1 0-10.118256 30.358209Z" fill="#00365B" p-id="4993"></path><path d="M491.042683 817.157617a16 16 0 1 0 10.118256-30.358209 16 16 0 1 0-10.118256 30.358209Z" fill="#00365B" p-id="4994"></path><path d="M491.04147 689.159934a16 16 0 1 0 10.118255-30.35821 16 16 0 1 0-10.118255 30.35821Z" fill="#00365B" p-id="4995"></path><path d="M693.5 225.9m-16 0a16 16 0 1 0 32 0 16 16 0 1 0-32 0Z" fill="#00365B" p-id="4996"></path><path d="M693.5 674m-16 0a16 16 0 1 0 32 0 16 16 0 1 0-32 0Z" fill="#00365B" p-id="4997"></path><path d="M693.5 353.9m-16 0a16 16 0 1 0 32 0 16 16 0 1 0-32 0Z" fill="#00365B" p-id="4998"></path><path d="M693.5 481.9m-16 0a16 16 0 1 0 32 0 16 16 0 1 0-32 0Z" fill="#00365B" p-id="4999"></path><path d="M693.5 417.9m-16 0a16 16 0 1 0 32 0 16 16 0 1 0-32 0Z" fill="#00365B" p-id="5000"></path><path d="M693.5 289.9m-16 0a16 16 0 1 0 32 0 16 16 0 1 0-32 0Z" fill="#00365B" p-id="5001"></path><path d="M693.5 738m-16 0a16 16 0 1 0 32 0 16 16 0 1 0-32 0Z" fill="#00365B" p-id="5002"></path><path d="M693.5 802m-16 0a16 16 0 1 0 32 0 16 16 0 1 0-32 0Z" fill="#00365B" p-id="5003"></path><path d="M693.5 610m-16 0a16 16 0 1 0 32 0 16 16 0 1 0-32 0Z" fill="#00365B" p-id="5004"></path><path d="M693.5 546m-16 0a16 16 0 1 0 32 0 16 16 0 1 0-32 0Z" fill="#00365B" p-id="5005"></path><path d="M854.7 833.4H334.4c-22.1 0-40-17.9-40-40V233.8c0-22.1 17.9-40 40-40h520.3c22.1 0 40 17.9 40 40v559.6c0 22-18 40-40 40zM334.4 225.8c-4.4 0-8 3.6-8 8v559.6c0 4.4 3.6 8 8 8h520.3c4.4 0 8-3.6 8-8V233.8c0-4.4-3.6-8-8-8H334.4z" fill="#00365B" p-id="5006"></path><path d="M206.3 269.8m-44 0a44 44 0 1 0 88 0 44 44 0 1 0-88 0Z" fill="#D35387" p-id="5007"></path><path d="M423.4 562h-40c-6.6 0-12-7.5-12-16.6V290.9c0-9.1 5.4-16.6 12-16.6h40c6.6 0 12 7.5 12 16.6v254.4c0 9.4-5.4 16.7-12 16.7zM403.4 754c-17.7 0-32-14.3-32-32s14.3-32 32-32 32 14.3 32 32c0 17.6-14.4 32-32 32zM594.5 754c-17.7 0-32-14.3-32-32s14.3-32 32-32 32 14.3 32 32c0 17.6-14.3 32-32 32zM785.9 754c-17.7 0-32-14.3-32-32s14.3-32 32-32 32 14.3 32 32c0 17.6-14.4 32-32 32zM614.5 562h-40c-6.6 0-12-7.5-12-16.6V290.9c0-9.1 5.4-16.6 12-16.6h40c6.6 0 12 7.5 12 16.6v254.4c0 9.4-5.3 16.7-12 16.7zM805.9 562h-40c-6.6 0-12-7.5-12-16.6V290.9c0-9.1 5.4-16.6 12-16.6h40c6.6 0 12 7.5 12 16.6v254.4c0 9.4-5.4 16.7-12 16.7z" fill="#D35387" p-id="5008"></path></svg>