<?xml version="1.0" standalone="no"?><!DOCTYPE svg PUBLIC "-//W3C//DTD SVG 1.1//EN" "http://www.w3.org/Graphics/SVG/1.1/DTD/svg11.dtd"><svg t="1710780541285" class="icon" viewBox="0 0 1024 1024" version="1.1" xmlns="http://www.w3.org/2000/svg" p-id="10378" xmlns:xlink="http://www.w3.org/1999/xlink" width="200" height="200"><path d="M436.204329 0h148.945455c239.376623 51.423418 384.773984 196.820779 436.197402 436.197403v148.945454c-51.423418 239.376623-196.820779 384.773984-436.197402 436.197403h-148.945455c-239.376623-51.423418-384.773984-196.820779-436.197403-436.197403v-148.945454c51.423418-239.376623 196.820779-384.773984 436.197403-436.197403z" fill="#D8EDFE" opacity=".958" p-id="10379"></path><path d="M563.871861 37.236364c-30.735958 2.032042-59.104748 11.782649-85.111688 29.257142a20252.315595 20252.315595 0 0 1-383.002597 210.119481C186.981347 119.645756 324.399487 38.087481 508.017316 31.916883c19.591647 0.005319 38.209829 1.782026 55.854545 5.319481z" fill="#6EAEF0" p-id="10380"></path><path d="M563.871861 37.236364c43.321849 3.287439 84.100987 13.9264 122.348052 31.916883A61130.501984 61130.501984 0 0 0 69.160173 406.94026c-14.564738 6.24507-25.203699 15.995678-31.916883 29.257143 9.069714-57.381236 28.576249-110.576042 58.514286-159.584416a20252.315595 20252.315595 0 0 0 383.002597-210.119481c26.00694-17.474494 54.37573-27.225101 85.111688-29.257142z" fill="#66A6EA" p-id="10381"></path><path d="M686.219913 69.153247c35.034099 10.426182 66.950982 26.384623 95.75065 47.875324a4113.564925 4113.564925 0 0 0-175.542857 90.431169c-13.234868-10.043179-29.193309-13.585953-47.875325-10.638961-5.255647 27.34213-7.027034 55.716239-5.319481 85.111689a1127.83626 1127.83626 0 0 0-90.431168 53.194805c-13.61787-1.606483-26.028218 0.170223-37.236364 5.31948a894.683429 894.683429 0 0 1-7.979221 42.555844c-66.115823-66.541382-135.26907-70.084156-207.45974-10.638961-17.857496 26.820821-31.156197 55.19493-39.896104 85.111689-0.319169-2.888478-2.090556-4.659865-5.31948-5.319481L42.562771 518.649351c-4.973714 12.660364-6.745101 25.964384-5.319481 39.896104-6.819574-40.098244-6.819574-80.877382 0-122.348052 6.713184-13.261465 17.352145-23.012073 31.916883-29.257143a61130.501984 61130.501984 0 0 1 617.05974-337.787013z" fill="#61A0E5" p-id="10382"></path><path d="M781.970563 117.028571a548.172468 548.172468 0 0 1 69.153247 58.514286 4070.860135 4070.860135 0 0 0-244.696104 132.987013v-101.07013a4113.564925 4113.564925 0 0 1 175.542857-90.431169z" fill="#5A98DF" p-id="10383"></path><path d="M851.12381 175.542857c34.374483 34.417039 62.743273 73.42479 85.111688 117.028572a2010.912582 2010.912582 0 0 0-117.028572 61.174026c-4.686462 3.766192-8.229236 8.202639-10.638961 13.298701-69.903294-53.019262-136.3968-49.471169-199.480519 10.638961a451.623896 451.623896 0 0 1-2.65974-69.153247 4070.860135 4070.860135 0 0 1 244.696104-132.987013z" fill="#5491DA" p-id="10384"></path><path d="M558.552381 196.820779c18.682016-2.946992 34.640457 0.595782 47.875325 10.638961v101.07013a451.623896 451.623896 0 0 0 2.65974 69.153247c63.083719-60.11013 129.577226-63.658223 199.480519-10.638961 35.677756 46.939096 49.86481 100.133901 42.555845 159.584415-15.644592 132.800831-86.569226 178.016416-212.779221 135.646754a135.912727 135.912727 0 0 1-34.576624-29.257143 100.469029 100.469029 0 0 0-13.298701 37.236363h-31.916883v-473.433766z" fill="#FAFBFD" p-id="10385"></path><path d="M425.565368 340.446753h37.236364v484.072728h-47.875325v-154.264936a132.662525 132.662525 0 0 0-2.65974-37.236363c-41.071709 46.380551-91.606774 60.567605-151.605195 42.555844-33.544644-15.809496-58.36534-40.635512-74.472727-74.472727-13.814691-46.758234-19.134171-94.633558-15.958442-143.625974 8.739906-29.916758 22.038608-58.290868 39.896104-85.111689 72.19067-59.445195 141.343917-55.902421 207.45974 10.638961a894.683429 894.683429 0 0 0 7.979221-42.555844z" fill="#C5E6FE" p-id="10386"></path><path d="M936.235498 292.571429c44.715553 80.425226 60.673995 165.536914 47.875325 255.335065a389.034888 389.034888 0 0 0-5.319481-90.431169c-42.69947 23.118462-85.255314 46.173091-127.667532 69.153246 7.308966-59.450514-6.878088-112.645319-42.555845-159.584415 2.409725-5.096062 5.952499-9.532509 10.638961-13.298701a2010.912582 2010.912582 0 0 1 117.028572-61.174026z" fill="#4782CE" p-id="10387"></path><path d="M404.287446 430.877922a235.961517 235.961517 0 0 1-10.638961-5.31948 2403.011491 2403.011491 0 0 0-162.244156 90.431168c-2.622504 8.692031-3.510857 17.554286-2.65974 26.597403-8.926088-43.178223-4.489642-85.734068 13.298701-127.667532 37.78959-46.976332 83.005174-54.955553 135.646753-23.937663 12.277361 11.319855 21.139616 24.618556 26.597403 39.896104z" fill="#5B99E0" p-id="10388"></path><path d="M781.970563 420.238961a4210.645444 4210.645444 0 0 1-175.542857 95.750649c-8.660114-118.230774 42.763304-159.903584 154.264935-125.007792 10.314473 7.617496 17.40534 17.368104 21.277922 29.257143z" fill="#4E8AD4" p-id="10389"></path><path d="M553.2329 281.932468v228.737662l-85.111688 42.555844a2238.77253 2238.77253 0 0 0-5.31948-218.098701 1127.83626 1127.83626 0 0 1 90.431168-53.194805z" fill="#528FD8" p-id="10390"></path><path d="M558.552381 196.820779v473.433766h31.916883c-1.819262 4.457725-5.362036 6.234431-10.638961 5.319481h-26.597403v-164.903896-228.737662c-1.707553-29.395449 0.063834-57.769558 5.319481-85.111689z" fill="#E2ECF8" p-id="10391"></path><path d="M404.287446 430.877922c10.734712 39.869506 13.394452 80.653964 7.979221 122.348052-16.437195 74.307823-61.652779 100.016873-135.646754 77.132468-31.874327-20.288499-47.832769-49.545642-47.875324-87.771429-0.851117-9.043117 0.037236-17.905371 2.65974-26.597403a2403.011491 2403.011491 0 0 1 162.244156-90.431168c3.633205 1.930971 7.181299 3.702358 10.638961 5.31948z" fill="#5390D9" p-id="10392"></path><path d="M781.970563 420.238961c20.118275 54.354452 21.006629 109.320644 2.65974 164.903896-32.337122 54.487439-77.552706 67.78614-135.646753 39.896104-31.33706-29.235865-45.524114-65.589195-42.555844-109.049351a4210.645444 4210.645444 0 0 0 175.542857-95.750649z" fill="#4782CE" p-id="10393"></path><path d="M170.230303 457.475325c-3.17573 48.992416 2.143751 96.86774 15.958442 143.625974a454.049579 454.049579 0 0 0-95.75065 45.215584c-11.660301 5.675886-20.522556 13.655106-26.597402 23.937662-16.245694-34.863875-25.107948-72.100239-26.597403-111.70909-1.425621-13.931719 0.345766-27.23574 5.319481-39.896104l122.348052-66.493507c3.228925 0.659616 5.000312 2.431003 5.31948 5.319481z" fill="#5997DE" p-id="10394"></path><path d="M425.565368 340.446753c11.208145-5.149257 23.618494-6.925964 37.236364-5.31948a2238.77253 2238.77253 0 0 1 5.31948 218.098701v271.293507h-5.31948v-484.072728h-37.236364z" fill="#ACD2F5" p-id="10395"></path><path d="M984.110823 547.906494c1.170286 24.46961-2.372488 47.518919-10.638962 69.153246-0.319169-2.888478-2.090556-4.659865-5.31948-5.31948a52001.581881 52001.581881 0 0 0-622.379221 345.766234 251.505039 251.505039 0 0 1-63.833766-26.597403 1607.632125 1607.632125 0 0 1 186.181818-106.38961v-85.111689a25527.894442 25527.894442 0 0 1 111.709091-63.833766c5.276925 0.914951 8.819699-0.861756 10.638961-5.319481a100.469029 100.469029 0 0 1 13.298701-37.236363 135.912727 135.912727 0 0 0 34.576624 29.257143c126.209995 42.369662 197.134629-2.845922 212.779221-135.646754 42.412218-22.980156 84.968062-46.034784 127.667532-69.153246a389.034888 389.034888 0 0 1 5.319481 90.431169z" fill="#3C76C5" p-id="10396"></path><path d="M186.188745 601.101299c16.107387 33.837216 40.928083 58.663231 74.472727 74.472727a68.780883 68.780883 0 0 0-26.597403 2.65974 1215.618327 1215.618327 0 0 0-132.987013 77.132468c-18.086234-25.570743-30.501901-53.939532-37.236363-85.111689 6.074847-10.282556 14.937101-18.261777 26.597402-23.937662 30.321039-18.884156 62.237922-33.959564 95.75065-45.215584z" fill="#518DD7" p-id="10397"></path><path d="M973.471861 617.05974c-42.832457 171.585164-147.450681 287.730701-313.84935 348.425974-106.501319 34.310649-211.114223 31.650909-313.849351-7.97922a52001.581881 52001.581881 0 0 1 622.379221-345.766234c3.228925 0.659616 5.000312 2.431003 5.31948 5.31948z" fill="#366FBF" p-id="10398"></path><path d="M553.2329 510.67013v164.903896h26.597403a25527.894442 25527.894442 0 0 0-111.709091 63.833766v-186.181818l85.111688-42.555844z" fill="#4581CD" p-id="10399"></path><path d="M414.926407 670.254545a4844.993496 4844.993496 0 0 0-265.974026 148.945455c-19.884218-18.139429-35.84266-39.417351-47.875325-63.833766a1215.618327 1215.618327 0 0 1 132.987013-77.132468 68.780883 68.780883 0 0 1 26.597403-2.65974c59.998421 18.011761 110.533486 3.824706 151.605195-42.555844 2.643782 12.288 3.526816 24.698348 2.65974 37.236363z" fill="#4B87D2" p-id="10400"></path><path d="M414.926407 670.254545v154.264936h53.194805a1607.632125 1607.632125 0 0 0-186.181818 106.38961c-52.513912-27.709174-96.846462-64.945538-132.987013-111.709091a4844.993496 4844.993496 0 0 1 265.974026-148.945455z" fill="#427CCA" p-id="10401"></path></svg>